<svg aria-hidden="true" style="position:absolute;width:0;height:0;overflow:hidden">
  <defs>
    <symbol id="icon-shop" viewBox="0 0 32 32">
      <path stroke-linecap="round" stroke-width="3.2" d="M2.667 1.779h2.826c.986 0 1.477 0 1.87.216.162.089.309.204.435.339.304.329.424.807.662 1.763l.316 1.264c.176.702.264 1.053.4 1.349a3.476 3.476 0 0 0 2.513 1.964c.32.059.681.059 1.406.059"/>
      <path stroke-linecap="round" stroke-linejoin="round" stroke-width="3.2" d="M27.003 24.375H8.839c-.252 0-.379 0-.476-.01a1.735 1.735 0 0 1-1.508-1.371 1.752 1.752 0 0 1 .001-.721c.04-.154.087-.306.141-.455.09-.268.134-.401.184-.521a3.474 3.474 0 0 1 2.951-2.128c.129-.009.271-.009.551-.009h9.367"/>
      <path stroke-linecap="round" stroke-width="3.2" d="M20.967 19.161h-6.178c-2.114 0-3.17 0-3.986-.478a3.477 3.477 0 0 1-.906-.768c-.608-.727-.782-1.77-1.128-3.854-.353-2.112-.528-3.169-.11-3.951.174-.326.416-.612.709-.838.702-.541 1.773-.541 3.914-.541h11.569c2.52 0 3.781 0 4.292.824.509.826-.056 1.952-1.182 4.206l-.777 1.556c-.935 1.87-1.403 2.805-2.242 3.323-.841.52-1.886.52-3.977.52z"/>
      <path d="M25.263 31.329a1.738 1.738 0 1 0 0-3.476 1.738 1.738 0 0 0 0 3.476zM11.359 31.329a1.738 1.738 0 1 0 0-3.476 1.738 1.738 0 0 0 0 3.476z"/>
    </symbol>
    <symbol id="icon-angl" viewBox="0 0 64 32">
      <path d="M33.87 9.015 48.955 24.1l-3.771 3.771-13.2-13.2-13.2 13.2-3.771-3.771L30.098 9.015a2.666 2.666 0 0 1 3.771 0z"/>
    </symbol>
    <symbol id="icon-angle" viewBox="0 0 64 32">
      <path d="M31.086 30.285 16.001 15.2l3.771-3.771 13.2 13.2 13.2-13.2 3.771 3.771-15.085 15.085a2.666 2.666 0 0 1-3.771 0z"/>
    </symbol>
    <symbol id="icon-shopp" viewBox="0 0 33 32">
      <path stroke-linecap="round" stroke-width="2.4" d="M1.2 9.334h2.12c.739 0 1.108 0 1.403.162.121.067.231.153.326.254.228.246.318.605.497 1.322l.237.948c.132.527.198.79.3 1.012a2.618 2.618 0 0 0 1.885 1.474c.24.044.511.044 1.055.044"/>
      <path stroke-linecap="round" stroke-linejoin="round" stroke-width="2.4" d="M19.452 26.281H5.829c-.189 0-.284 0-.357-.008a1.297 1.297 0 0 1-.913-.533 1.299 1.299 0 0 1-.217-1.034c.03-.115.065-.229.106-.342.068-.201.1-.301.138-.391a2.597 2.597 0 0 1 2.213-1.596c.096-.006.203-.006.413-.006h7.025"/>
      <path stroke-linecap="round" stroke-width="2.4" d="M14.926 22.37h-4.633c-1.585 0-2.378 0-2.989-.359a2.609 2.609 0 0 1-.679-.576c-.456-.545-.587-1.327-.846-2.89-.265-1.584-.396-2.377-.082-2.963.131-.245.312-.459.532-.628.527-.405 1.33-.405 2.936-.405h8.677c1.89 0 2.835 0 3.219.618.382.619-.042 1.464-.886 3.155l-.583 1.167c-.701 1.403-1.052 2.104-1.682 2.493-.631.39-1.414.39-2.983.39z"/>
      <path d="M18.147 31.496a1.304 1.304 0 1 0 0-2.608 1.304 1.304 0 0 0 0 2.608zM7.719 31.496a1.304 1.304 0 1 0 0-2.608 1.304 1.304 0 0 0 0 2.608zM22.8 0c5.523 0 10 4.477 10 10s-4.477 10-10 10-10-4.477-10-10 4.477-10 10-10z"/>
      <path d="M19.845 14.8v-1.267h2.347v-6.12h-2.347V6.48c.311-.027.653-.08 1.027-.16.373-.089.76-.2 1.16-.333.4-.142.787-.298 1.16-.467h.56v8.013h2.32V14.8h-6.227z"/>
    </symbol>
    <symbol id="icon-shoppi" viewBox="0 0 32 32">
      <path stroke-linecap="round" stroke-width="3.2" d="M2.667 1.779h2.826c.986 0 1.477 0 1.87.216.162.089.309.204.435.339.304.329.424.807.662 1.763l.316 1.264c.176.702.264 1.053.4 1.349a3.476 3.476 0 0 0 2.513 1.964c.32.059.681.059 1.406.059"/>
      <path stroke-linecap="round" stroke-linejoin="round" stroke-width="3.2" d="M27.003 24.375H8.839c-.252 0-.379 0-.476-.01a1.735 1.735 0 0 1-1.508-1.371 1.752 1.752 0 0 1 .001-.721c.04-.154.087-.306.141-.455.09-.268.134-.401.184-.521a3.474 3.474 0 0 1 2.951-2.128c.129-.009.271-.009.551-.009h9.367"/>
      <path stroke-linecap="round" stroke-width="3.2" d="M20.017 18.963h-6.178c-2.114 0-3.17 0-3.986-.478a3.477 3.477 0 0 1-.906-.768c-.608-.727-.782-1.77-1.128-3.854-.353-2.112-.528-3.169-.109-3.951.174-.326.416-.612.709-.838.702-.541 1.773-.541 3.914-.541h11.569c2.52 0 3.781 0 4.292.824.509.826-.056 1.952-1.182 4.207l-.777 1.556c-.935 1.87-1.403 2.806-2.242 3.324-.841.52-1.886.52-3.977.52z"/>
      <path d="M25.263 31.329a1.738 1.738 0 1 0 0-3.476 1.738 1.738 0 0 0 0 3.476zM11.359 31.329a1.738 1.738 0 1 0 0-3.476 1.738 1.738 0 0 0 0 3.476z"/>
    </symbol>
    <symbol id="icon-hover-color" viewBox="0 0 28 32">
      <path stroke-width="3.097" d="M13.953 1.652c1.778 0 3.413.85 4.569 2.236 1.148 1.378 1.758 3.197 1.758 5.046s-.61 3.668-1.758 5.047c-.803.964-1.839 1.667-2.993 2.007h3.202c2.095 0 4.034 1.001 5.414 2.656 1.373 1.647 2.109 3.831 2.109 6.06 0 1.469-.485 2.923-1.409 4.032-.932 1.118-2.262 1.818-3.724 1.818H6.785c-1.462 0-2.792-.7-3.724-1.818-.925-1.11-1.408-2.563-1.408-4.032 0-2.23.736-4.413 2.108-6.06 1.38-1.655 3.318-2.656 5.414-2.656h3.202c-1.153-.34-2.188-1.044-2.992-2.007-1.149-1.378-1.759-3.197-1.759-5.047s.611-3.667 1.759-5.046c1.156-1.387 2.79-2.236 4.569-2.236z"/>
    </symbol>
    <symbol id="icon-hover" viewBox="0 0 28 32">
      <path stroke-width="3.097" d="M13.953 1.652c1.778 0 3.413.85 4.569 2.236 1.148 1.378 1.758 3.197 1.758 5.046s-.61 3.668-1.758 5.047c-.803.964-1.839 1.667-2.993 2.007h3.202c2.095 0 4.034 1.001 5.414 2.656 1.373 1.647 2.109 3.831 2.109 6.06 0 1.469-.485 2.923-1.409 4.032-.932 1.118-2.262 1.818-3.724 1.818H6.785c-1.462 0-2.792-.7-3.724-1.818-.925-1.11-1.408-2.563-1.408-4.032 0-2.23.736-4.413 2.108-6.06 1.38-1.655 3.318-2.656 5.414-2.656h3.202c-1.153-.34-2.188-1.044-2.992-2.007-1.149-1.378-1.759-3.197-1.759-5.047s.611-3.667 1.759-5.046c1.156-1.387 2.79-2.236 4.569-2.236z"/>
    </symbol>
    <symbol id="icon-facebook" viewBox="0 0 33 32">
      <path d="M32.667 16c0-8.836-7.163-16-16-16s-16 7.163-16 16c0 7.986 5.851 14.605 13.5 15.806V20.625h-4.063V16h4.063v-3.525c0-4.01 2.389-6.225 6.043-6.225 1.751 0 3.582.313 3.582.313v3.938h-2.018c-1.988 0-2.607 1.233-2.607 2.499v3.001h4.437l-.709 4.625h-3.728v11.181c7.649-1.2 13.5-7.819 13.5-15.806z"/>
    </symbol>
    <symbol id="icon-google" viewBox="0 0 32 32">
      <path d="M11.148 1.053a15.818 15.818 0 0 0 1.083 30.224c2.65.684 5.426.714 8.09.087a14.284 14.284 0 0 0 6.475-3.365 14.363 14.363 0 0 0 4-6.565c.773-2.731.911-5.603.402-8.395h-14.88v6.172h8.618a7.425 7.425 0 0 1-3.165 4.88 9.036 9.036 0 0 1-3.483 1.375 10.325 10.325 0 0 1-3.775 0 9.27 9.27 0 0 1-3.512-1.533 9.824 9.824 0 0 1-3.625-4.855 9.573 9.573 0 0 1 0-6.157 9.812 9.812 0 0 1 2.295-3.727 9.286 9.286 0 0 1 9.363-2.445 8.574 8.574 0 0 1 3.41 2c.972-.967 1.942-1.936 2.91-2.908.5-.522 1.045-1.02 1.537-1.555a15.312 15.312 0 0 0-5.09-3.14 15.996 15.996 0 0 0-10.652-.095z"/>
      <path d="M11.148 1.052a15.999 15.999 0 0 1 10.653.093A15.309 15.309 0 0 1 26.888 4.3c-.5.535-1.027 1.035-1.537 1.555-.97.968-1.939 1.933-2.907 2.895a8.574 8.574 0 0 0-3.41-2 9.29 9.29 0 0 0-9.366 2.435 9.82 9.82 0 0 0-2.295 3.727L2.19 8.9a15.886 15.886 0 0 1 8.957-7.848zM.815 12.876A15.714 15.714 0 0 1 2.19 8.901l5.182 4.022a9.576 9.576 0 0 0 0 6.158 1457.926 1457.926 0 0 0-5.183 4.02A15.834 15.834 0 0 1 .814 12.876zM16.316 13.036h14.88a18.573 18.573 0 0 1-.403 8.395 14.363 14.363 0 0 1-4 6.565c-1.673-1.305-3.353-2.6-5.025-3.905a7.425 7.425 0 0 0 3.165-4.885h-8.617c-.003-2.055 0-4.112 0-6.17z"/>
      <path d="M2.188 23.101c1.728-1.333 3.456-2.673 5.183-4.02a9.824 9.824 0 0 0 3.63 4.855 9.285 9.285 0 0 0 3.52 1.52c1.248.232 2.527.232 3.775 0a9.038 9.038 0 0 0 3.482-1.375c1.673 1.305 3.353 2.6 5.025 3.905a14.273 14.273 0 0 1-6.475 3.367c-2.664.626-5.44.596-8.09-.087a15.764 15.764 0 0 1-5.75-2.897 15.934 15.934 0 0 1-4.3-5.268z"/>
    </symbol>
  </defs>
</svg>
